<svg xmlns="http://www.w3.org/2000/svg" viewBox="0 0 300 200" width="300" height="200"><rect width="300" height="200" rx="6" fill="#f3f4f6"/><rect x="20" y="60" width="56" height="80" rx="6" fill="#dfe3e8"/><rect x="30" y="82" width="36" height="14" rx="3" fill="#aab0b8"/><rect x="32" y="110" width="26" height="6" rx="3" fill="#c4cad1"/><rect x="88" y="60" width="56" height="80" rx="6" fill="#dfe3e8"/><rect x="98" y="82" width="36" height="14" rx="3" fill="#aab0b8"/><rect x="100" y="110" width="26" height="6" rx="3" fill="#c4cad1"/><rect x="156" y="60" width="56" height="80" rx="6" fill="#dfe3e8"/><rect x="166" y="82" width="36" height="14" rx="3" fill="#aab0b8"/><rect x="168" y="110" width="26" height="6" rx="3" fill="#c4cad1"/><rect x="224" y="60" width="56" height="80" rx="6" fill="#dfe3e8"/><rect x="234" y="82" width="36" height="14" rx="3" fill="#aab0b8"/><rect x="236" y="110" width="26" height="6" rx="3" fill="#c4cad1"/></svg>
